<svg width="194" height="54" viewBox="0 0 194 54" fill="none" xmlns="http://www.w3.org/2000/svg">
<path d="M23.0091 49.2222C19.9383 49.2222 17.1721 48.6933 14.7107 47.6356C12.2493 46.5779 10.2228 45.0671 8.6313 43.1032C7.03978 41.1393 6.01327 38.8031 5.55176 36.0945L11.9972 35.1062C12.6496 37.7158 14.0138 39.7456 16.0897 41.1953C18.1656 42.645 20.5907 43.3699 23.365 43.3699C25.0785 43.3699 26.6602 43.0997 28.1099 42.5594C29.5596 42.0191 30.7228 41.2399 31.5993 40.2217C32.4758 39.2036 32.9141 37.9795 32.9141 36.5496C32.9141 35.7785 32.7823 35.0964 32.5186 34.5033C32.255 33.9102 31.8876 33.3945 31.4165 32.9561C30.9454 32.5178 30.3803 32.1339 29.7213 31.8044C29.0622 31.475 28.3405 31.1916 27.5562 30.9544L16.6035 27.7122C15.5359 27.4024 14.4502 26.9937 13.3463 26.4864C12.2424 25.979 11.2292 25.3167 10.3066 24.4994C9.38404 23.6822 8.63771 22.664 8.06761 21.4449C7.49751 20.2258 7.21247 18.7496 7.21247 17.0163C7.21247 14.3803 7.8896 12.148 9.24387 10.3192C10.5981 8.49042 12.4286 7.10649 14.7352 6.1674C17.0419 5.22831 19.6286 4.76525 22.4953 4.77822C25.3882 4.80479 27.9748 5.31233 30.2551 6.30085C32.5353 7.28937 34.4316 8.71114 35.9441 10.5662C37.4565 12.4212 38.5026 14.657 39.0825 17.2734L32.4396 18.4198C32.1366 16.8054 31.5039 15.42 30.5417 14.2634C29.5794 13.1068 28.3932 12.2188 26.983 11.5993C25.5728 10.9797 24.0505 10.6569 22.416 10.6306C20.8279 10.6043 19.3798 10.8482 18.0717 11.362C16.7636 11.8759 15.7174 12.5942 14.9331 13.5169C14.1488 14.4396 13.7566 15.5072 13.7566 16.7197C13.7566 17.9059 14.101 18.8632 14.7897 19.5914C15.4784 20.3197 16.3335 20.8964 17.3549 21.3214C18.3763 21.7465 19.3912 22.0974 20.3995 22.3742L28.2878 24.6081C29.2764 24.8784 30.3999 25.2458 31.6586 25.7104C32.9173 26.1751 34.1348 26.8258 35.3113 27.6626C36.4878 28.4995 37.4599 29.6017 38.2275 30.9692C38.9952 32.3368 39.379 34.065 39.379 36.1538C39.379 38.2958 38.9441 40.184 38.0742 41.8183C37.2043 43.4526 36.0115 44.8167 34.4958 45.9107C32.9801 47.0048 31.237 47.8302 29.2665 48.387C27.2959 48.9438 25.2101 49.2222 23.0091 49.2222Z" fill="white"/>
<path d="M54.7408 49.2222C52.3814 49.2222 50.3977 48.7839 48.7898 47.9074C47.1819 47.0309 45.9694 45.8644 45.1521 44.408C44.3349 42.9517 43.9263 41.3536 43.9263 39.6138C43.9263 37.9991 44.2146 36.5773 44.7912 35.3483C45.3678 34.1193 46.2163 33.0731 47.3367 32.2099C48.4571 31.3466 49.8443 30.6513 51.4982 30.124C52.9087 29.7089 54.5151 29.3415 56.3174 29.0219C58.1198 28.7023 60.0128 28.4074 61.9965 28.1371C63.9802 27.8668 65.9506 27.5868 67.9079 27.297L65.6735 28.562C65.7066 26.0382 65.1745 24.1717 64.0772 22.9624C62.98 21.7532 61.1001 21.1486 58.4376 21.1486C56.7506 21.1486 55.207 21.539 53.8067 22.3198C52.4064 23.1005 51.4261 24.3905 50.8657 26.1896L45.0926 24.4102C45.8704 21.6557 47.3714 19.4678 49.5956 17.8466C51.8198 16.2255 54.7804 15.4149 58.4774 15.4149C61.3506 15.4149 63.8483 15.9058 65.9703 16.8877C68.0924 17.8696 69.6477 19.415 70.6362 21.5239C71.1502 22.5782 71.4666 23.6886 71.5852 24.8551C71.7038 26.0215 71.7631 27.2705 71.7631 28.6019V48.3325H66.2866V41.0173L67.3542 41.9469C66.0296 44.3984 64.3425 46.2238 62.293 47.4232C60.2436 48.6225 57.7262 49.2222 54.7408 49.2222ZM55.8478 44.1608C57.6074 44.1608 59.1214 43.8478 60.39 43.2218C61.6585 42.5958 62.6767 41.7968 63.4445 40.8248C64.2123 39.8528 64.7181 38.8494 64.9618 37.8145C65.2914 36.8656 65.4793 35.7947 65.5255 34.602C65.5717 33.4093 65.5948 32.4636 65.5948 31.7648L67.6113 32.4965C65.6671 32.793 63.8926 33.0583 62.2879 33.2923C60.6833 33.5263 59.2351 33.7602 57.9434 33.9941C56.6517 34.2279 55.4984 34.4998 54.4837 34.8096C53.6335 35.0997 52.8757 35.4523 52.2102 35.8675C51.5446 36.2827 51.0191 36.79 50.6335 37.3896C50.248 37.9892 50.0553 38.7109 50.0553 39.5545C50.0553 40.3848 50.2628 41.1493 50.678 41.8479C51.0932 42.5465 51.7275 43.1067 52.5808 43.5283C53.4342 43.95 54.5232 44.1608 55.8478 44.1608Z" fill="white"/>
<path d="M79.4341 48.3325L79.4735 5.62854H85.7604V31.7254L98.3344 16.3045H106.223L92.9375 32.3185L107.587 48.3325H99.1647L85.7604 32.9116V48.3325H79.4341Z" fill="white"/>
<path d="M133.031 48.3325V32.5952C133.031 31.3431 132.928 30.0598 132.72 28.745C132.513 27.4303 132.119 26.2079 131.539 25.0777C130.959 23.9476 130.14 23.0365 129.082 22.3445C128.024 21.6526 126.646 21.3066 124.945 21.3066C123.832 21.3066 122.782 21.4927 121.797 21.865C120.812 22.2372 119.947 22.8286 119.202 23.6392C118.457 24.4498 117.871 25.5141 117.443 26.8323C117.014 28.1504 116.8 29.7617 116.8 31.6661L112.945 30.2227C112.945 27.3165 113.489 24.7513 114.576 22.5271C115.663 20.3029 117.227 18.5649 119.266 17.3128C121.306 16.0608 123.766 15.4348 126.646 15.4348C128.86 15.4348 130.72 15.7939 132.226 16.5121C133.732 17.2304 134.954 18.1677 135.893 19.3243C136.832 20.4809 137.549 21.738 138.043 23.0957C138.538 24.4533 138.874 25.7862 139.052 27.0943C139.229 28.4024 139.318 29.5507 139.318 30.5392V48.3325H133.031ZM110.513 48.3325V16.3045H116.069V25.5571H116.8V48.3325H110.513Z" fill="white"/>
<path d="M160.848 49.2222C157.652 49.2222 154.856 48.5237 152.461 47.1266C150.065 45.7296 148.199 43.7822 146.861 41.2845C145.523 38.7868 144.854 35.8903 144.854 32.5952C144.854 29.0958 145.512 26.0611 146.826 23.4909C148.141 20.9208 149.973 18.9322 152.323 17.5253C154.672 16.1183 157.409 15.4149 160.532 15.4149C163.794 15.4149 166.572 16.1727 168.865 17.6884C171.159 19.2041 172.874 21.3557 174.011 24.1433C175.148 26.931 175.604 30.236 175.38 34.0585H169.172V31.8047C169.132 28.0943 168.425 25.3512 167.051 23.5752C165.677 21.7993 163.583 20.9113 160.77 20.9113C157.672 20.9113 155.342 21.8883 153.781 23.8421C152.219 25.796 151.438 28.6215 151.438 32.3185C151.438 35.8312 152.219 38.5512 153.781 40.4787C155.342 42.4061 157.593 43.3699 160.532 43.3699C162.47 43.3699 164.147 42.9317 165.564 42.0553C166.981 41.1789 168.084 39.917 168.875 38.2696L174.945 40.2069C173.706 43.0671 171.821 45.2847 169.29 46.8597C166.76 48.4347 163.946 49.2222 160.848 49.2222ZM149.421 34.0585V29.2344H172.276V34.0585H149.421Z" fill="white"/>
</svg>
